<svg xmlns="http://www.w3.org/2000/svg" xmlns:xlink="http://www.w3.org/1999/xlink" version="1.1" x="0px" y="0px" viewBox="0 0 1080 1350" enable-background="new 0 0 1080 1080" xml:space="preserve"><g><path d="M780.238,325.262c4.617-13.138,7.109-27.072,7.109-41.51c0-78.895-74.133-142.851-165.58-142.851   c-36.662,0-70.535,10.287-97.971,27.688c-30.331-32.982-77.189-54.139-129.78-54.139c-82.082,0-150.201,51.53-163.295,119.136   c-61.976,20.653-105.94,72.541-105.94,133.294c0,34.294,14.013,65.763,37.36,90.385c-5.29,13.973-8.161,28.889-8.161,44.386   c0,78.895,74.133,142.851,165.58,142.851c34.667,0,66.841-9.197,93.437-24.91c26.594,15.713,58.769,24.91,93.436,24.91   c56.128,0,105.726-24.098,135.671-60.952c24.475,12.321,52.939,19.388,83.32,19.388c91.447,0,165.58-63.957,165.58-142.851   C891.004,397.77,844.744,344.781,780.238,325.262z"/><circle cx="770.171" cy="749.597" r="98.171"/><circle cx="914.365" cy="924.695" r="40.854"/></g></svg>